<svg width="152" height="152" viewBox="0 0 152 152" fill="none" xmlns="http://www.w3.org/2000/svg">
<rect width="152" height="152" fill="white"/>
<path fill-rule="evenodd" clip-rule="evenodd" d="M143.556 76C143.556 88.1333 141.028 99.6026 136.534 109.778H80.2224C90.6202 93.8522 101.333 74.5672 101.333 54.8889C101.333 29.5655 84.1847 8.24749 60.8666 1.91432C65.7319 0.661671 70.7973 0 76.0001 0C113.31 0 143.556 34.0264 143.556 76ZM84.4445 54.8889C84.4445 33.9021 67.4313 16.8889 46.4445 16.8889C18.3639 16.8889 8.44446 52.8078 8.44446 76C8.44446 117.974 38.6901 152 76 152C96.0077 152 113.984 142.215 126.354 126.667H46.4445C47.93 124.773 49.4855 122.821 51.0835 120.816C65.9328 102.183 84.4445 78.9544 84.4445 54.8889Z" fill="#7859CF"/>
</svg>
